<svg width="375" height="88" viewBox="0 0 375 88" fill="none" xmlns="http://www.w3.org/2000/svg">
<g filter="url(#filter0_i_22_568)">
<rect width="375" height="88" fill="black"/>
</g>
<rect x="121" y="75" width="134" height="5" rx="2.5" fill="white"/>
<g opacity="0.5">
<path d="M36.2929 29H52.2929M47 35H52.2929M47 39H52.2929M47 43H52.2929M36 36C36 35.7348 36.1054 35.4804 36.2929 35.2929C36.4804 35.1054 36.7348 35 37 35H43C43.2652 35 43.5196 35.1054 43.7071 35.2929C43.8946 35.4804 44 35.7348 44 36V42C44 42.2652 43.8946 42.5196 43.7071 42.7071C43.5196 42.8946 43.2652 43 43 43H37C36.7348 43 36.4804 42.8946 36.2929 42.7071C36.1054 42.5196 36 42.2652 36 42V36Z" stroke="white" stroke-width="2" stroke-linecap="round" stroke-linejoin="round"/>
</g>
<g opacity="0.5">
<path fill-rule="evenodd" clip-rule="evenodd" d="M114 30C112.939 30 111.922 30.4215 111.172 31.1716C110.421 31.9218 110 32.9392 110 34C110 35.0609 110.421 36.0783 111.172 36.8285C111.922 37.5786 112.939 38 114 38C115.061 38 116.078 37.5786 116.828 36.8285C117.579 36.0783 118 35.0609 118 34C118 32.9392 117.579 31.9218 116.828 31.1716C116.078 30.4215 115.061 30 114 30ZM108 34C108 33.0557 108.223 32.1247 108.65 31.2828C109.078 30.4408 109.698 29.7116 110.46 29.1546C111.223 28.5975 112.106 28.2282 113.038 28.0769C113.97 27.9255 114.925 27.9962 115.824 28.2834C116.724 28.5705 117.543 29.0659 118.215 29.7293C118.887 30.3927 119.393 31.2054 119.692 32.1012C119.991 32.997 120.074 33.9506 119.934 34.8846C119.795 35.8185 119.437 36.7064 118.89 37.476L123.707 42.293C123.889 42.4816 123.99 42.7342 123.988 42.9964C123.985 43.2586 123.88 43.5094 123.695 43.6949C123.509 43.8803 123.259 43.9854 122.996 43.9877C122.734 43.99 122.482 43.8892 122.293 43.707L117.477 38.891C116.579 39.5293 115.523 39.9082 114.425 39.9862C113.326 40.0641 112.227 39.8381 111.248 39.333C110.27 38.8279 109.449 38.0631 108.876 37.1224C108.303 36.1817 108 35.1015 108 34Z" fill="white"/>
</g>
<rect x="168" y="16" width="40" height="40" rx="20" fill="url(#paint0_linear_22_568)"/>
<path d="M188 30V36M188 36V42M188 36H194M188 36H182" stroke="white" stroke-width="3" stroke-linecap="round" stroke-linejoin="round"/>
<path d="M263 41H268L266.595 39.595C266.406 39.4063 266.257 39.1822 266.155 38.9357C266.052 38.6891 266 38.4249 266 38.158V35C266 33.7589 265.616 32.5483 264.899 31.5349C264.183 30.5214 263.17 29.755 262 29.341V29C262 28.4696 261.789 27.9609 261.414 27.5858C261.039 27.2107 260.53 27 260 27C259.47 27 258.961 27.2107 258.586 27.5858C258.211 27.9609 258 28.4696 258 29V29.341C255.67 30.165 254 32.388 254 35V38.159C254 38.697 253.786 39.214 253.405 39.595L252 41H257M263 41H257M263 41V42C263 42.7956 262.684 43.5587 262.121 44.1213C261.559 44.6839 260.796 45 260 45C259.204 45 258.441 44.6839 257.879 44.1213C257.316 43.5587 257 42.7956 257 42V41" stroke="white" stroke-width="2" stroke-linecap="round" stroke-linejoin="round"/>
<g opacity="0.5">
<path d="M325.121 41.804C327.219 40.6179 329.59 39.9963 332 40C334.5 40 336.847 40.655 338.879 41.804M335 34C335 34.7956 334.684 35.5587 334.121 36.1213C333.559 36.6839 332.796 37 332 37C331.204 37 330.441 36.6839 329.879 36.1213C329.316 35.5587 329 34.7956 329 34C329 33.2044 329.316 32.4413 329.879 31.8787C330.441 31.3161 331.204 31 332 31C332.796 31 333.559 31.3161 334.121 31.8787C334.684 32.4413 335 33.2044 335 34ZM341 36C341 37.1819 340.767 38.3522 340.315 39.4442C339.863 40.5361 339.2 41.5282 338.364 42.364C337.528 43.1997 336.536 43.8626 335.444 44.3149C334.352 44.7672 333.182 45 332 45C330.818 45 329.648 44.7672 328.556 44.3149C327.464 43.8626 326.472 43.1997 325.636 42.364C324.8 41.5282 324.137 40.5361 323.685 39.4442C323.233 38.3522 323 37.1819 323 36C323 33.6131 323.948 31.3239 325.636 29.636C327.324 27.9482 329.613 27 332 27C334.387 27 336.676 27.9482 338.364 29.636C340.052 31.3239 341 33.6131 341 36Z" stroke="white" stroke-width="2" stroke-linecap="round" stroke-linejoin="round"/>
</g>
<defs>
<filter id="filter0_i_22_568" x="0" y="0" width="375" height="88" filterUnits="userSpaceOnUse" color-interpolation-filters="sRGB">
<feFlood flood-opacity="0" result="BackgroundImageFix"/>
<feBlend mode="normal" in="SourceGraphic" in2="BackgroundImageFix" result="shape"/>
<feColorMatrix in="SourceAlpha" type="matrix" values="0 0 0 0 0 0 0 0 0 0 0 0 0 0 0 0 0 0 127 0" result="hardAlpha"/>
<feOffset dy="1"/>
<feComposite in2="hardAlpha" operator="arithmetic" k2="-1" k3="1"/>
<feColorMatrix type="matrix" values="0 0 0 0 0.196078 0 0 0 0 0.203922 0 0 0 0 0.211765 0 0 0 1 0"/>
<feBlend mode="normal" in2="shape" result="effect1_innerShadow_22_568"/>
</filter>
<linearGradient id="paint0_linear_22_568" x1="168" y1="36" x2="209.136" y2="36" gradientUnits="userSpaceOnUse">
<stop stop-color="#F72E8E"/>
<stop offset="1" stop-color="#AC1AF0"/>
</linearGradient>
</defs>
</svg>
